# xmcd
#
# Track frame offsets:
#	150
#	10523
#	24037
#	36368
#	47163
#	56100
#	67326
#	79451
#	89272
#	100474
#	113189
#	122740
#	131546
#	144184
#	154450
#	164087
#	175781
#	187338
#	200744
#	211317
#	222780
#	233906
#	244119
#	254132
#	265657
#	276130
#	287079
#	299596
#	311345
#	321750
#	332837
#	343769
#
# Disc length: 4721 seconds
#
# Revision: 0
# Processed by: cddbd v1.4PL0 Copyright (c) Steve Scherf et al.
# Submitted via: EasyCDDAExtractor 4.6.9.1
#
DISCID=fa126f20
DTITLE=Connie Smith - Born To Sing - Disc 4
DYEAR=2001
DGENRE=Country
TTITLE0=On And On And On
TTITLE1=Everybody Loves Somebody
TTITLE2=That's What Lonesome Is
TTITLE3=In Case You Ever Change Your Mind
TTITLE4=It Comes And Goes
TTITLE5=My Whole World Is Falling Down
TTITLE6=It's Not The End Of Everything
TTITLE7=Cincinnati, Ohio
TTITLE8=I Love You Enough (For Both Of Us)
TTITLE9=Only For Me
TTITLE10=I'll Come Running
TTITLE11=Easy Come - Easy Go
TTITLE12=I Love You Drops
TTITLE13=Don't Feel Sorry For Me
TTITLE14=I'll Love You Enough (For Both Of Us)
TTITLE15=Burning Bridges
TTITLE16=Don't Keep Me Lonely Too Long
TTITLE17=There Goes My Everything
TTITLE18=Touch My Heart
TTITLE19=Walk Throuhg This World With Me
TTITLE20=It's Such A Pretty World Today
TTITLE21=If Teardrops Were Silver
TTITLE22=It Only Hurts For A Little While
TTITLE23=How Much Lonelier Can Lonely Be
TTITLE24=I's Rather Be A Fool
TTITLE25=Surely
TTITLE26=I'm Your Woman
TTITLE27=Burning A Hole In My Mind
TTITLE28=Baby's Back Again
TTITLE29=Haunted Heart
TTITLE30=Burning A Hole In My Mind
TTITLE31=The Twelfth Of Never
EXTD=
EXTT0=
EXTT1=
EXTT2=
EXTT3=
EXTT4=
EXTT5=
EXTT6=
EXTT7=
EXTT8=
EXTT9=
EXTT10=
EXTT11=
EXTT12=
EXTT13=
EXTT14=
EXTT15=
EXTT16=
EXTT17=
EXTT18=
EXTT19=
EXTT20=
EXTT21=
EXTT22=
EXTT23=
EXTT24=
EXTT25=
EXTT26=
EXTT27=
EXTT28=
EXTT29=
EXTT30=
EXTT31=
PLAYORDER=
